<svg data-v-423bf9ae="" xmlns="http://www.w3.org/2000/svg" viewBox="0 0 910 107" class="iconLeft"><!----><defs data-v-423bf9ae=""><linearGradient data-v-423bf9ae="" gradientTransform="rotate(25)" id="72e91c99-4984-48a6-a3f1-4ac39bd8a734" x1="0%" y1="0%" x2="100%" y2="0%"><stop data-v-423bf9ae="" offset="0%" style="stop-color: rgb(57, 94, 202); stop-opacity: 1;"></stop><stop data-v-423bf9ae="" offset="100%" style="stop-color: rgb(132, 139, 216); stop-opacity: 1;"></stop></linearGradient></defs><!----><g data-v-423bf9ae="" id="e5ee3561-ce65-4052-975c-d9b5da66566f" fill="#ffffff" transform="matrix(4.7581282391648685,0,0,4.7581282391648685,98.92568798781002,7.164818131243351)"><path d="M3.99 12.96C3.99 13.15 4.14 13.30 4.33 13.30C4.51 13.30 4.66 13.15 4.66 12.96L4.66 4.19L7.62 4.19C7.80 4.19 7.95 4.03 7.95 3.84C7.95 3.65 7.80 3.50 7.62 3.50L1.04 3.50C0.85 3.50 0.70 3.65 0.70 3.84C0.70 4.03 0.85 4.19 1.04 4.19L3.99 4.19L3.99 12.96ZM13.90 6.44C13.72 6.44 13.57 6.58 13.57 6.78L13.57 7.78C12.98 6.97 12.04 6.44 10.99 6.44C9.18 6.44 7.74 7.99 7.74 9.87C7.74 11.75 9.18 13.30 10.99 13.30C12.04 13.30 12.98 12.75 13.57 11.94L13.57 12.96C13.57 13.15 13.72 13.30 13.90 13.30C14.08 13.30 14.24 13.15 14.24 12.96L14.24 6.78C14.24 6.58 14.08 6.44 13.90 6.44ZM10.99 12.63C9.59 12.63 8.41 11.41 8.41 9.87C8.41 8.33 9.59 7.10 10.99 7.10C12.40 7.10 13.57 8.33 13.57 9.87C13.57 11.41 12.40 12.63 10.99 12.63ZM20.19 13.30L20.19 13.30C20.19 13.30 20.19 13.30 20.19 13.30L20.19 13.30C21 13.30 21.77 13.02 22.34 12.57L22.34 12.57C22.51 12.45 22.54 12.24 22.41 12.08L22.41 12.08C22.30 11.96 22.11 11.91 21.95 12.03L21.95 12.03L21.95 12.03C21.46 12.40 20.85 12.63 20.19 12.63L20.19 12.63C18.59 12.63 17.33 11.40 17.33 9.86L17.33 9.86C17.33 8.34 18.59 7.10 20.19 7.10L20.19 7.10C20.85 7.10 21.46 7.32 21.95 7.71L21.95 7.71C22.11 7.83 22.30 7.78 22.41 7.66L22.41 7.66C22.54 7.50 22.51 7.29 22.37 7.20L22.37 7.20C21.77 6.72 21 6.44 20.19 6.44L20.19 6.44C18.23 6.44 16.66 7.95 16.66 9.86L16.66 9.86C16.66 11.79 18.23 13.30 20.19 13.30ZM27.20 6.44L26.32 6.44L26.32 3.89C26.32 3.72 26.14 3.56 25.96 3.56C25.79 3.56 25.62 3.72 25.62 3.89L25.62 6.44L24.77 6.44C24.43 6.44 24.43 6.61 24.43 6.78C24.43 6.94 24.43 7.11 24.77 7.11L25.62 7.11L25.62 12.11C25.62 12.80 26.14 13.30 26.82 13.30C26.99 13.30 27.17 13.13 27.17 12.96C27.17 12.80 26.99 12.61 26.82 12.61C26.66 12.61 26.32 12.45 26.32 12.11L26.32 7.11L27.20 7.11C27.37 7.11 27.54 6.94 27.54 6.78C27.54 6.61 27.37 6.44 27.20 6.44ZM30.76 12.96L30.76 12.96C30.76 13.15 30.91 13.30 31.09 13.30L31.09 13.30C31.29 13.30 31.44 13.15 31.44 12.96L31.44 6.78L31.44 6.78C31.44 6.58 31.29 6.44 31.09 6.44L31.09 6.44C30.91 6.44 30.76 6.58 30.76 6.78ZM30.76 4.86L30.76 4.86C30.76 5.05 30.91 5.22 31.09 5.22L31.09 5.22C31.29 5.22 31.44 5.05 31.44 4.86L31.44 4.54L31.44 4.54C31.44 4.35 31.29 4.20 31.09 4.20L31.09 4.20C30.91 4.20 30.76 4.35 30.76 4.54ZM37.72 13.30L37.72 13.30C37.72 13.30 37.72 13.30 37.72 13.30L37.72 13.30C38.53 13.30 39.30 13.02 39.87 12.57L39.87 12.57C40.04 12.45 40.07 12.24 39.94 12.08L39.94 12.08C39.83 11.96 39.63 11.91 39.48 12.03L39.48 12.03L39.48 12.03C38.99 12.40 38.37 12.63 37.72 12.63L37.72 12.63C36.12 12.63 34.86 11.40 34.86 9.86L34.86 9.86C34.86 8.34 36.12 7.10 37.72 7.10L37.72 7.10C38.37 7.10 38.99 7.32 39.48 7.71L39.48 7.71C39.63 7.83 39.83 7.78 39.94 7.66L39.94 7.66C40.07 7.50 40.04 7.29 39.90 7.20L39.90 7.20C39.30 6.72 38.53 6.44 37.72 6.44L37.72 6.44C35.76 6.44 34.19 7.95 34.19 9.86L34.19 9.86C34.19 11.79 35.76 13.30 37.72 13.30ZM48.09 6.44C47.91 6.44 47.75 6.58 47.75 6.78L47.75 7.78C47.17 6.97 46.23 6.44 45.18 6.44C43.37 6.44 41.93 7.99 41.93 9.87C41.93 11.75 43.37 13.30 45.18 13.30C46.23 13.30 47.17 12.75 47.75 11.94L47.75 12.96C47.75 13.15 47.91 13.30 48.09 13.30C48.27 13.30 48.43 13.15 48.43 12.96L48.43 6.78C48.43 6.58 48.27 6.44 48.09 6.44ZM45.18 12.63C43.78 12.63 42.60 11.41 42.60 9.87C42.60 8.33 43.78 7.10 45.18 7.10C46.59 7.10 47.75 8.33 47.75 9.87C47.75 11.41 46.59 12.63 45.18 12.63ZM51.63 12.96L51.63 12.96C51.63 13.15 51.79 13.30 51.97 13.30L51.97 13.30C52.16 13.30 52.32 13.15 52.32 12.96L52.32 3.84L52.32 3.84C52.32 3.65 52.16 3.50 51.97 3.50L51.97 3.50C51.79 3.50 51.63 3.65 51.63 3.84L51.63 12.96ZM66.63 8.89L66.63 11.77C65.90 12.31 64.99 12.61 64.04 12.61C61.59 12.61 59.63 10.70 59.63 8.32C59.63 5.96 61.59 4.05 64.04 4.05C65.09 4.05 66.05 4.41 66.77 5.00C66.93 5.11 67.14 5.08 67.26 4.94C67.38 4.80 67.34 4.56 67.21 4.47C66.33 3.78 65.25 3.36 64.04 3.36C61.22 3.36 58.94 5.59 58.94 8.32C58.94 11.09 61.22 13.29 64.04 13.30C65.24 13.30 66.33 12.91 67.20 12.22C67.27 12.17 67.31 12.07 67.33 11.97L67.33 11.91L67.33 8.55C67.33 8.37 67.19 8.22 67.02 8.20L66.98 8.20L63.95 8.20C63.76 8.20 63.60 8.36 63.60 8.55C63.60 8.75 63.76 8.89 63.95 8.89ZM70.62 12.96C70.62 13.16 70.77 13.30 70.97 13.30C71.13 13.30 71.29 13.16 71.29 12.96L71.29 9.95C71.29 9.93 71.29 9.90 71.32 9.84C71.41 9.56 71.68 8.86 72.14 8.25C72.62 7.63 73.23 7.13 74.13 7.13C74.31 7.13 74.47 6.97 74.47 6.79C74.47 6.59 74.31 6.45 74.13 6.45C72.81 6.45 71.90 7.32 71.39 8.13C71.34 8.19 71.32 8.25 71.29 8.30L71.29 6.79C71.29 6.59 71.13 6.45 70.97 6.45C70.77 6.45 70.62 6.59 70.62 6.79L70.62 12.96ZM76.09 9.87L76.09 9.87C76.09 11.73 77.55 13.30 79.34 13.30L79.34 13.30C81.14 13.30 82.59 11.73 82.59 9.87L82.59 9.87C82.59 8.01 81.14 6.44 79.34 6.44L79.34 6.44C77.55 6.44 76.09 8.01 76.09 9.87ZM76.76 9.87L76.76 9.87C76.76 8.34 77.94 7.10 79.34 7.10L79.34 7.10C80.74 7.10 81.91 8.34 81.91 9.87L81.91 9.87C81.91 11.40 80.74 12.63 79.34 12.63L79.34 12.63C77.94 12.63 76.76 11.40 76.76 9.87ZM86.95 13.27C87.00 13.29 87.04 13.30 87.08 13.30C87.19 13.30 87.33 13.22 87.37 13.09C87.37 13.08 87.39 13.06 87.39 13.06L88.97 9.28L90.57 13.08L90.58 13.09C90.61 13.20 90.73 13.29 90.85 13.30L90.89 13.30L90.92 13.30C90.97 13.30 91.03 13.27 91.08 13.23C91.14 13.19 91.18 13.13 91.21 13.06L93.77 6.96C93.84 6.79 93.76 6.59 93.59 6.52C93.44 6.45 93.23 6.54 93.16 6.71L90.89 12.11L89.31 8.34C89.25 8.22 89.11 8.13 88.97 8.13C88.84 8.13 88.70 8.22 88.65 8.34L87.07 12.11L84.78 6.71C84.73 6.54 84.52 6.45 84.35 6.52C84.20 6.59 84.11 6.79 84.18 6.96L86.76 13.09C86.79 13.16 86.83 13.22 86.90 13.24C86.91 13.26 86.93 13.27 86.95 13.27ZM98.71 6.44L97.83 6.44L97.83 3.89C97.83 3.72 97.65 3.56 97.47 3.56C97.30 3.56 97.13 3.72 97.13 3.89L97.13 6.44L96.28 6.44C95.94 6.44 95.94 6.61 95.94 6.78C95.94 6.94 95.94 7.11 96.28 7.11L97.13 7.11L97.13 12.11C97.13 12.80 97.65 13.30 98.34 13.30C98.50 13.30 98.69 13.13 98.69 12.96C98.69 12.80 98.50 12.61 98.34 12.61C98.17 12.61 97.83 12.45 97.83 12.11L97.83 7.11L98.71 7.11C98.88 7.11 99.05 6.94 99.05 6.78C99.05 6.61 98.88 6.44 98.71 6.44ZM107.02 12.96C107.02 13.15 107.17 13.30 107.35 13.30C107.55 13.30 107.70 13.15 107.70 12.96L107.70 9.14C107.70 7.56 106.41 6.44 104.83 6.44C103.96 6.44 103.18 6.83 102.66 7.45L102.66 3.84C102.66 3.65 102.51 3.50 102.31 3.50C102.13 3.50 101.98 3.65 101.98 3.84L101.98 9.03L101.98 9.14L101.98 12.96C101.98 13.01 101.98 13.03 101.99 13.08C102.00 13.12 102.02 13.15 102.05 13.19C102.12 13.26 102.21 13.30 102.31 13.30L102.35 13.30L102.38 13.30C102.40 13.30 102.41 13.29 102.41 13.29C102.51 13.26 102.58 13.20 102.62 13.12C102.63 13.10 102.63 13.09 102.65 13.06C102.65 13.05 102.66 13.03 102.66 13.01L102.66 12.96L102.66 9.14C102.66 7.94 103.64 7.13 104.83 7.13C106.04 7.13 107.02 7.94 107.02 9.14L107.02 12.96ZM114.51 11.90L114.51 11.90C115.32 12.54 116.62 13.30 118.12 13.31L118.12 13.31C119.10 13.31 119.98 13.02 120.64 12.54L120.64 12.54C121.30 12.07 121.74 11.37 121.74 10.58L121.74 10.58C121.74 9.80 121.31 9.16 120.67 8.74L120.67 8.74C120.02 8.30 119.15 8.02 118.17 7.84L118.15 7.84L118.15 7.84C117.26 7.67 116.54 7.43 116.05 7.10L116.05 7.10C115.56 6.76 115.33 6.40 115.32 5.91L115.32 5.91C115.32 5.40 115.60 4.93 116.09 4.56L116.09 4.56C116.58 4.21 117.29 3.98 118.09 3.98L118.09 3.98C119.17 3.98 120.01 4.51 120.78 5.01L120.78 5.01C120.92 5.11 121.11 5.07 121.20 4.93L121.20 4.93C121.30 4.77 121.25 4.59 121.11 4.49L121.11 4.49C120.34 3.99 119.38 3.36 118.09 3.36L118.09 3.36C117.17 3.36 116.34 3.63 115.72 4.07L115.72 4.07C115.11 4.52 114.70 5.17 114.70 5.91L114.70 5.91C114.70 6.64 115.11 7.22 115.71 7.62L115.71 7.62C116.31 8.02 117.11 8.27 118.02 8.44L118.05 8.44L118.05 8.44C119 8.62 119.78 8.89 120.32 9.24L120.32 9.24C120.85 9.60 121.11 10.02 121.11 10.58L121.11 10.58C121.11 11.13 120.82 11.65 120.27 12.04L120.27 12.04C119.74 12.43 118.97 12.68 118.12 12.68L118.12 12.68C116.84 12.70 115.63 12.01 114.90 11.42L114.90 11.42C114.77 11.31 114.58 11.33 114.46 11.47L114.46 11.47C114.37 11.59 114.38 11.79 114.51 11.90ZM123.31 10.49C123.31 12.03 124.56 13.27 126.08 13.29C126.94 13.29 127.69 12.89 128.21 12.31L128.21 12.75C128.20 14.17 127.05 15.30 125.62 15.30C125.23 15.30 124.84 15.20 124.50 15.04C124.33 14.99 124.15 15.04 124.07 15.20C123.98 15.36 124.05 15.55 124.21 15.65C124.64 15.85 125.12 15.97 125.62 15.97C127.43 15.97 128.88 14.55 128.88 12.75L128.88 10.61L128.88 10.49L128.88 6.76C128.88 6.72 128.87 6.66 128.84 6.62C128.83 6.58 128.79 6.54 128.76 6.51C128.70 6.48 128.65 6.45 128.59 6.44L128.55 6.44L128.51 6.44C128.49 6.44 128.48 6.45 128.46 6.45L128.44 6.45C128.39 6.47 128.34 6.50 128.31 6.54C128.30 6.54 128.30 6.55 128.28 6.55C128.28 6.57 128.27 6.58 128.27 6.59C128.23 6.64 128.21 6.71 128.21 6.76L128.21 10.49C128.20 11.66 127.26 12.60 126.08 12.60C124.92 12.60 123.98 11.66 123.98 10.49L123.98 6.76C123.98 6.58 123.83 6.44 123.63 6.44C123.47 6.44 123.31 6.58 123.31 6.76L123.31 10.49ZM131.40 12.32L131.40 12.32C131.96 12.77 132.83 13.29 133.94 13.30L133.94 13.30C134.61 13.30 135.17 13.10 135.65 12.75L135.65 12.75C136.11 12.40 136.43 11.94 136.43 11.37L136.43 11.37C136.43 10.79 136.11 10.26 135.66 9.97L135.66 9.97C135.18 9.70 134.65 9.51 133.99 9.41L133.97 9.41L133.97 9.41C133.34 9.31 132.87 9.14 132.57 8.93L132.57 8.93C132.30 8.72 132.17 8.53 132.17 8.25L132.17 8.25C132.17 7.97 132.33 7.69 132.61 7.46L132.61 7.46C132.90 7.22 133.35 7.07 133.91 7.07L133.91 7.07C134.58 7.07 135.09 7.42 135.59 7.76L135.59 7.76C135.74 7.85 135.95 7.81 136.05 7.66L136.05 7.66C136.15 7.50 136.11 7.29 135.95 7.18L135.95 7.18C135.42 6.85 134.79 6.44 133.91 6.44L133.91 6.44C133.21 6.44 132.64 6.62 132.23 6.90L132.23 6.90C131.80 7.22 131.49 7.70 131.49 8.25L131.49 8.25C131.49 8.78 131.80 9.23 132.23 9.48L132.23 9.48C132.62 9.76 133.17 9.90 133.78 10.01L133.81 10.02L133.81 10.02C134.48 10.14 134.97 10.30 135.27 10.53L135.27 10.53C135.62 10.82 135.74 11.05 135.76 11.37L135.76 11.37C135.76 11.68 135.58 11.98 135.24 12.21L135.24 12.21C134.93 12.46 134.47 12.63 133.94 12.63L133.94 12.63C133.07 12.63 132.31 12.18 131.84 11.83L131.84 11.83C131.68 11.70 131.47 11.73 131.36 11.87L131.36 11.87C131.25 12.01 131.26 12.19 131.40 12.32ZM140.99 6.44L140.11 6.44L140.11 3.89C140.11 3.72 139.93 3.56 139.75 3.56C139.58 3.56 139.41 3.72 139.41 3.89L139.41 6.44L138.56 6.44C138.22 6.44 138.22 6.61 138.22 6.78C138.22 6.94 138.22 7.11 138.56 7.11L139.41 7.11L139.41 12.11C139.41 12.80 139.93 13.30 140.62 13.30C140.78 13.30 140.97 13.13 140.97 12.96C140.97 12.80 140.78 12.61 140.62 12.61C140.45 12.61 140.11 12.45 140.11 12.11L140.11 7.11L140.99 7.11C141.16 7.11 141.33 6.94 141.33 6.78C141.33 6.61 141.16 6.44 140.99 6.44ZM146.82 13.30C147.98 13.30 149.00 12.68 149.59 11.75C149.69 11.58 149.63 11.38 149.48 11.27C149.34 11.19 149.13 11.21 149.03 11.38C148.57 12.15 147.73 12.63 146.82 12.63C145.40 12.63 144.23 11.49 144.16 10.00L149.79 10.00C149.97 10.00 150.12 9.87 150.12 9.69L150.12 9.65L150.12 9.63C149.98 7.84 148.58 6.44 146.82 6.44C144.97 6.44 143.49 7.98 143.49 9.88C143.49 11.76 144.97 13.30 146.82 13.30ZM146.82 7.11C148.08 7.11 149.17 8.05 149.39 9.34L144.20 9.34C144.45 8.04 145.53 7.11 146.82 7.11ZM162.32 12.98C162.32 13.15 162.46 13.30 162.64 13.30C162.83 13.30 162.97 13.15 162.97 12.98L162.97 9.24C162.97 7.70 161.73 6.45 160.19 6.45C159.14 6.45 158.21 7.04 157.72 7.91C157.25 7.04 156.34 6.45 155.27 6.45C154.42 6.45 153.66 6.83 153.16 7.43L153.16 6.78C153.16 6.59 153.02 6.45 152.82 6.45C152.66 6.45 152.50 6.59 152.50 6.78L152.50 9.13L152.50 9.24L152.50 12.98L152.50 13.05C152.54 13.17 152.66 13.29 152.78 13.30L152.82 13.30L152.87 13.30C152.89 13.30 152.91 13.30 152.92 13.29C152.95 13.29 152.99 13.26 153.01 13.24C153.10 13.19 153.16 13.09 153.16 12.98L153.16 9.24C153.16 8.08 154.10 7.11 155.27 7.11C156.45 7.11 157.39 8.08 157.39 9.24L157.39 12.98L157.39 13.01L157.39 13.05C157.40 13.06 157.40 13.08 157.40 13.09C157.42 13.10 157.42 13.12 157.42 13.12C157.43 13.13 157.43 13.13 157.43 13.15C157.44 13.15 157.44 13.16 157.46 13.17L157.50 13.22C157.51 13.23 157.53 13.24 157.54 13.24C157.57 13.26 157.60 13.29 157.63 13.29C157.63 13.29 157.64 13.30 157.65 13.30L157.68 13.30L157.72 13.30C157.78 13.30 157.84 13.29 157.89 13.26C157.96 13.22 158.03 13.16 158.06 13.08L158.06 13.05C158.06 13.05 158.07 13.03 158.07 13.02L158.07 12.98L158.07 9.24C158.07 8.08 159.03 7.11 160.19 7.11C161.36 7.11 162.29 8.08 162.32 9.24L162.32 12.98ZM165.38 12.32L165.38 12.32C165.94 12.77 166.81 13.29 167.92 13.30L167.92 13.30C168.59 13.30 169.15 13.10 169.62 12.75L169.62 12.75C170.09 12.40 170.41 11.94 170.41 11.37L170.41 11.37C170.41 10.79 170.09 10.26 169.64 9.97L169.64 9.97C169.16 9.70 168.63 9.51 167.97 9.41L167.94 9.41L167.94 9.41C167.31 9.31 166.85 9.14 166.54 8.93L166.54 8.93C166.28 8.72 166.15 8.53 166.15 8.25L166.15 8.25C166.15 7.97 166.31 7.69 166.59 7.46L166.59 7.46C166.88 7.22 167.33 7.07 167.89 7.07L167.89 7.07C168.56 7.07 169.06 7.42 169.57 7.76L169.57 7.76C169.72 7.85 169.93 7.81 170.03 7.66L170.03 7.66C170.13 7.50 170.09 7.29 169.93 7.18L169.93 7.18C169.40 6.85 168.77 6.44 167.89 6.44L167.89 6.44C167.19 6.44 166.61 6.62 166.21 6.90L166.21 6.90C165.77 7.22 165.47 7.70 165.47 8.25L165.47 8.25C165.47 8.78 165.77 9.23 166.21 9.48L166.21 9.48C166.60 9.76 167.15 9.90 167.76 10.01L167.79 10.02L167.79 10.02C168.46 10.14 168.95 10.30 169.25 10.53L169.25 10.53C169.60 10.82 169.72 11.05 169.74 11.37L169.74 11.37C169.74 11.68 169.55 11.98 169.22 12.21L169.22 12.21C168.91 12.46 168.45 12.63 167.92 12.63L167.92 12.63C167.05 12.63 166.29 12.18 165.82 11.83L165.82 11.83C165.66 11.70 165.45 11.73 165.34 11.87L165.34 11.87C165.23 12.01 165.24 12.19 165.38 12.32Z"></path></g><!----><g data-v-423bf9ae="" id="bb61a427-fd20-4b00-96c8-599e961304d0" transform="matrix(1.0868111504448785,0,0,1.0868111504448785,-13.255261890115804,-0.23894260335429607)" stroke="none" fill="#ffffff"><g clip-rule="evenodd"><path d="M12.983 10.59l17.018 88.223-5.872-59.049 29.021-1.892-.054-9.883L64.549 1 53.622 18.977z"></path><path d="M59.389 54.548l5.16-53.541-8.74 39.716-19.612 1.045 1.57 20.462-7.766 36.583 12.057-39.899z"></path><path d="M62.8 67.182l.549-10.453-15.979 3.755-.032 11.797-17.337 26.532 21.68-27.616zM65.711 62.394l14.841-4.731 1.509-12.532-15.899 2.095zM72.07 44.502l10.988-1.417 1.581-10.278-8.079-.373L64.549 1l8.43 30.967z"></path><path d="M87.413 31.294l1.256-9.506-9.544-2.694L64.549 1l14.483 22.437-.422 7z"></path></g></g><!----></svg>